<?xml version="1.0" encoding="utf-8"?>
<!-- Generator: Adobe Illustrator 25.4.1, SVG Export Plug-In . SVG Version: 6.00 Build 0)  -->
<svg version="1.1" id="Layer_1" xmlns="http://www.w3.org/2000/svg" xmlns:xlink="http://www.w3.org/1999/xlink" x="0px" y="0px"
	 viewBox="0 0 250 230" style="enable-background:new 0 0 250 230;" xml:space="preserve">
<style type="text/css">
	.st0{fill:#D9D9D9;}
</style>
<g>
	<path class="st0" d="M172.56,9.55h74.58v210.22h-74.58v-23.36c-15.85,19.94-37.29,29.91-64.34,29.91c-15.3,0-29.37-2.81-42.21-8.4
		c-12.84-5.6-24.04-13.45-33.6-23.56c-9.57-10.1-17.01-21.99-22.33-35.65c-5.33-13.66-7.99-28.55-7.99-44.67
		c0-15.02,2.59-29.3,7.79-42.82C15.05,57.7,22.3,45.88,31.59,35.77c9.28-10.1,20.35-18.09,33.19-23.97
		c12.84-5.87,27.05-8.81,42.62-8.81c26.23,0,47.95,9.15,65.16,27.45V9.55z M79.12,114.04c0,6.83,1.23,13.18,3.69,19.06
		c2.46,5.87,5.8,11,10.04,15.36c4.23,4.37,9.28,7.79,15.16,10.25c5.87,2.46,12.22,3.69,19.05,3.69c6.56,0,12.77-1.23,18.64-3.69
		c5.87-2.46,10.92-5.87,15.16-10.25c4.23-4.36,7.65-9.42,10.25-15.16c2.59-5.74,3.89-11.88,3.89-18.44c0-6.56-1.3-12.77-3.89-18.65
		c-2.6-5.87-6.01-10.99-10.25-15.37c-4.24-4.37-9.29-7.78-15.16-10.24c-5.88-2.46-12.09-3.69-18.64-3.69
		c-6.83,0-13.18,1.23-19.05,3.69c-5.88,2.46-10.93,5.88-15.16,10.24c-4.24,4.37-7.58,9.36-10.04,14.96
		C80.35,101.41,79.12,107.49,79.12,114.04z"/>
</g>
<circle class="st0" cx="140.51" cy="122.47" r="23.53"/>
</svg>
