<?xml version="1.0" encoding="utf-8"?>
<!-- Generator: Adobe Illustrator 25.4.1, SVG Export Plug-In . SVG Version: 6.00 Build 0)  -->
<svg version="1.1" id="Layer_1" xmlns="http://www.w3.org/2000/svg" xmlns:xlink="http://www.w3.org/1999/xlink" x="0px" y="0px"
	 viewBox="0 0 672.3 110.7" style="enable-background:new 0 0 672.3 110.7;" xml:space="preserve">
<style type="text/css">
	.st0{fill:#262627;}
</style>
<path class="st0" d="M0,54.5c-0.1-7.4,1.5-14.7,4.6-21.4c3-6.6,7.4-12.5,12.8-17.3c5.7-5,12.4-9,19.6-11.6C44.9,1.3,53.3-0.1,61.8,0
	c8.4-0.1,16.7,1.3,24.6,4.1c7.2,2.6,13.9,6.4,19.7,11.5c5.5,4.8,9.9,10.8,12.9,17.5c3.1,7.1,4.7,14.7,4.6,22.4
	c0.1,7.7-1.5,15.4-4.7,22.4c-3.1,6.7-7.5,12.6-12.9,17.5c-5.8,5.1-12.5,8.9-19.8,11.4c-8,2.7-16.5,4.1-25,4
	c-8.3,0.1-16.6-1.3-24.5-4c-7.2-2.5-13.7-6.4-19.4-11.4c-5.4-5-9.7-11-12.7-17.7C1.5,70.3-0.1,62.4,0,54.5z M38.3,54.9
	c0,3.3,0.6,6.5,1.9,9.5c1.2,2.8,2.9,5.3,5,7.5c2.1,2.2,4.6,3.9,7.4,5c5.8,2.4,12.4,2.4,18.2,0c2.8-1.1,5.3-2.8,7.4-5
	c2.1-2.2,3.8-4.7,5-7.5c1.3-2.9,1.9-6.1,1.9-9.3c0-3.1-0.6-6.3-1.9-9.1c-1.2-2.8-2.9-5.3-5-7.5c-2.1-2.2-4.6-3.9-7.4-5
	C65,31,58.5,31,52.6,33.4c-2.8,1.1-5.3,2.8-7.4,5c-2.1,2.2-3.8,4.7-5,7.4C38.9,48.7,38.3,51.8,38.3,54.9z"/>
<path class="st0" d="M206.3,82.4c-2.4,0.5-4.8,1-7.3,1.3c-2.6,0.3-5.3,0.5-7.9,0.5c-9.1,0-16.9-1.2-23.5-3.7
	c-6.2-2.2-11.7-6-16-10.9c-4.3-5.1-7.4-11.1-9.1-17.6c-2-7.8-3-15.8-2.9-23.9V3.8h36.3v25.5c-0.1,4.3,0.3,8.6,1.3,12.8
	c0.6,2.8,1.9,5.4,3.7,7.5c1.5,1.7,3.4,2.9,5.6,3.5c2.3,0.6,4.6,0.9,7,0.9c4.8,0.2,9.4-1.6,12.8-5V3.8h36.3v103.1h-36.3L206.3,82.4z"
	/>
<path class="st0" d="M303.8,3.8v57.7l43.1-57.7h36.3v103.1h-36.3V49.4l-43.3,57.5h-36.1V3.8H303.8z"/>
<path class="st0" d="M462,106.9l-22.3-60.7l-10,60.7h-30.7L418.7,3.8h29.9l21.3,55.7l21.2-55.7h29.9l19.7,103.1h-30.9l-9.8-60.7
	l-22.3,60.7H462z"/>
<path class="st0" d="M635.8,3.8h36.5v103.1h-36.5V95.5c-7.8,9.8-18.3,14.7-31.5,14.7c-7.1,0.1-14.1-1.3-20.7-4.1
	c-6.2-2.7-11.8-6.6-16.4-11.6c-4.7-5.1-8.5-11-10.9-17.5c-2.7-7-4-14.4-3.9-21.9c0-7.2,1.3-14.3,3.8-21c2.4-6.4,6-12.3,10.6-17.4
	c4.6-5,10.1-9,16.2-11.8c6.6-2.9,13.7-4.4,20.9-4.3c12.8,0,23.5,4.5,31.9,13.5L635.8,3.8z M590.1,55.1c-0.1,6.3,2.4,12.4,6.7,16.9
	c2.1,2.2,4.6,3.9,7.4,5c3,1.2,6.1,1.8,9.3,1.8c3.1,0,6.2-0.6,9.1-1.8c2.8-1.1,5.3-2.8,7.4-5c2.1-2.2,3.8-4.7,5-7.4
	c1.3-2.8,1.9-5.9,1.9-9.1c0-3.1-0.6-6.3-1.9-9.1c-1.2-2.8-2.9-5.3-5-7.5c-2.1-2.2-4.6-3.9-7.4-5c-2.9-1.2-6-1.8-9.1-1.8
	c-3.2,0-6.4,0.6-9.3,1.8c-2.8,1.1-5.3,2.8-7.4,5c-2.1,2.1-3.7,4.6-4.9,7.3C590.7,49,590.1,52,590.1,55.1L590.1,55.1z"/>
<circle class="st0" cx="67.6" cy="59" r="14.5"/>
<circle class="st0" cx="618.6" cy="59" r="14.5"/>
</svg>
